<?xml version="1.0" encoding="utf-8"?>
<!-- Generator: Adobe Illustrator 26.5.1, SVG Export Plug-In . SVG Version: 6.00 Build 0)  -->
<svg version="1.1"
	 id="svg138" xmlns:svg="http://www.w3.org/2000/svg" xmlns:sodipodi="http://sodipodi.sourceforge.net/DTD/sodipodi-0.dtd" xmlns:inkscape="http://www.inkscape.org/namespaces/inkscape" xmlns:cc="http://creativecommons.org/ns#" xmlns:rdf="http://www.w3.org/1999/02/22-rdf-syntax-ns#" xmlns:dc="http://purl.org/dc/elements/1.1/" sodipodi:docname="broloading.svg"
	 xmlns="http://www.w3.org/2000/svg" xmlns:xlink="http://www.w3.org/1999/xlink" x="0px" y="0px" viewBox="0 0 200 200"
	 style="enable-background:new 0 0 200 200;" xml:space="preserve">
<style type="text/css">
	.st0{fill:none;stroke:#1B2857;stroke-width:28.8;stroke-miterlimit:8;stroke-dasharray:0,600;}
	.st1{fill:none;stroke:#1B2857;stroke-width:14.4;stroke-miterlimit:8;stroke-dasharray:0,600;}
	.st2{fill:none;stroke:#3C3B3C;stroke-width:2;stroke-miterlimit:8;stroke-dasharray:0,600;}
	.st3{fill:#1B2857;stroke:#3C3B3C;}
	.st4{fill:#1B2857;stroke:#3C3B3C;stroke-width:2;stroke-miterlimit:8;}
	.st5{fill:#712C5D;}
	.st6{fill:#5B4398;}
	.st7{fill:#1B2857;}
</style>
<sodipodi:namedview  bordercolor="#666666" borderopacity="1" gridtolerance="10" guidetolerance="10" id="namedview140" inkscape:current-layer="svg138" inkscape:cx="119.26121" inkscape:cy="114.6438" inkscape:deskcolor="#d1d1d1" inkscape:document-rotation="0" inkscape:pagecheckerboard="0" inkscape:pageopacity="0" inkscape:pageshadow="2" inkscape:showpageshadow="2" inkscape:snap-bbox="true" inkscape:snap-nodes="true" inkscape:window-height="837" inkscape:window-maximized="1" inkscape:window-width="1440" inkscape:window-x="-8" inkscape:window-y="-8" inkscape:zoom="3.79" objecttolerance="10" pagecolor="#ffffff" showgrid="false">
	</sodipodi:namedview>
<g id="g86">
	
		<animateTransform  accumulate="none" additive="replace" attributeName="transform" begin="-0.14375000000000002s" calcMode="spline" dur="1.25s" fill="remove" keySplines="0.5 0 0.5 1" keyTimes="0;1" repeatCount="indefinite" restart="always" type="rotate" values="360 50 50;0 50 50">
		</animateTransform>
	<circle id="circle78" class="st0" cx="100" cy="100" r="79.8">
	
		<animate  accumulate="none" additive="replace" attributeName="stroke-dasharray" begin="-0.066125s" calcMode="linear" dur="1.25s" fill="remove" keySplines="0 0.4 0.6 1;0.4 0 1 0.6" keyTimes="0;0.5;1" repeatCount="indefinite" restart="always" values="15 300;63.41256390744134 300;15 300">
		</animate>
	</circle>
	<circle id="circle80" class="st1" cx="100" cy="100" r="79.8">
	
		<animate  accumulate="none" additive="replace" attributeName="stroke-dasharray" begin="-0.066125s" calcMode="linear" dur="1.25s" fill="remove" keySplines="0 0.4 0.6 1;0.4 0 1 0.6" keyTimes="0;0.5;1" repeatCount="indefinite" restart="always" values="15 300;63.41256390744134 300;15 300">
		</animate>
	</circle>
	<circle id="circle82" class="st2" cx="100" cy="100" r="65.5">
	
		<animate  accumulate="none" additive="replace" attributeName="stroke-dasharray" begin="-0.066125s" calcMode="linear" dur="1.25s" fill="remove" keySplines="0 0.4 0.6 1;0.4 0 1 0.6" keyTimes="0;0.5;1" repeatCount="indefinite" restart="always" values="15 300;52.09428522250031 300;15 300">
		</animate>
	</circle>
	<circle id="circle84" class="st2" cx="100" cy="100" r="94.3">
	
		<animate  accumulate="none" additive="replace" attributeName="stroke-dasharray" begin="-0.066125s" calcMode="linear" dur="1.25s" fill="remove" keySplines="0 0.4 0.6 1;0.4 0 1 0.6" keyTimes="0;0.5;1" repeatCount="indefinite" restart="always" values="15 300;75.93897346324685 300;15 300">
		</animate>
	</circle>
</g>
<g id="g98" transform="matrix(1.0052146,0,0,1,-0.36553619,0)">
	
		<animateTransform  accumulate="none" additive="replace" attributeName="transform" calcMode="spline" dur="1.25s" fill="remove" keySplines="0.5 0 0.5 1" keyTimes="0;1" repeatCount="indefinite" restart="always" type="rotate" values="360 50 50;0 50 50">
		</animateTransform>
	<path id="path88" sodipodi:nodetypes="cscac" class="st3" d="M194,100c0,12.2-1.7,24.7-7,35.6c-12.7,26-43.7,30-43.7,30
		s13.4-20.7,17.1-32.3c3.5-10.7,4.8-25,4.8-33.4"/>
</g>
<g id="g136">
	
		<animateTransform  accumulate="none" additive="replace" attributeName="transform" begin="-0.14375000000000002s" calcMode="spline" dur="1.25s" fill="remove" keySplines="0.5 0 0.5 1" keyTimes="0;1" repeatCount="indefinite" restart="always" type="rotate" values="360 50 50;0 50 50">
		</animateTransform>
	<path id="path104" class="st4" d="M165.6,100.4c0-6.8-1-13.6-3-20c-0.4-1.6-0.8-3-0.6-4.6s0.8-3.2,1.4-4.8c1.4-3,3.8-6.2,7.4-8l0,0
		c3.6-1.8,7.4-2,11.2-0.6c1.8,0.8,3.4,2,4.8,3.6c1.4,1.6,2.6,3.4,3.4,5.6c3,9.2,4.4,19,4.4,28.8"/>
	<path id="path1" sodipodi:nodetypes="cccc" class="st5" d="M173,76.7l2.4-3.4l3.7,1.2L173,76.7z"/>
	<path id="path4" class="st5" d="M175.6,74.6c0,0,1.4,4.4,1.6,6.5c0.2,2.1-0.1,3.9-0.1,3.9l1-2.6l1.8,0.8c0,0-1.6-1.1-1.9-2.4
		c-0.3-1.3-1.5-6.8-1.5-6.8L175.6,74.6z"/>
	<ellipse id="path862" class="st6" cx="179.6" cy="68" rx="1.9" ry="2.1"/>
	<ellipse id="path862-7" class="st6" cx="169" cy="71.8" rx="2.1" ry="2.3"/>
	<path id="path2" class="st7" d="M166.2,72.6l6.4-1l-2.8-2.4l-3.1,0.2L166.2,72.6z"/>
	<path id="path3" class="st7" d="M176.3,69.9l5.3-3.5l-3.8-1.9l-2.8,2.2L176.3,69.9z"/>
</g>
</svg>
